# xmcd CD database file
#
# Track frame offsets:
#	150
#	20352
#	39000
#	53150
#	72732
#	90820
#	109907
#	129140
#	148257
#	166480
#	186022
#	199892
#	212895
#	231605
#	249727
#	268672
#
# Disc length: 3827 seconds
#
# Revision: 1
# Processed by: cddbd v1.5PL3 Copyright (c) Steve Scherf et al.
# Submitted via: CDex 1.50beta9
#
DISCID=ea0ef110
DTITLE=Various Artist - SAX FOR LOVERS
DYEAR=2001
DGENRE=Blues
TTITLE0=Sie sieht mich nicht
TTITLE1=I Wonder Why
TTITLE2=Now I Know What Made Otis Blue
TTITLE3=I Swear
TTITLE4=Tell Me Why
TTITLE5=Hero
TTITLE6=On Silent Wings
TTITLE7=If You Believe
TTITLE8=Lenigrad
TTITLE9=Woman In Love
TTITLE10=Song For Sandy
TTITLE11=Again
TTITLE12=Eard Song
TTITLE13=I Just Can`t Stop Loving You
TTITLE14=Do You Remember
TTITLE15=I Don`t Want To Miss A Thing
EXTD=YEAR: 2001
EXTT0=
EXTT1=
EXTT2=
EXTT3=
EXTT4=
EXTT5=
EXTT6=
EXTT7=
EXTT8=
EXTT9=
EXTT10=
EXTT11=
EXTT12=
EXTT13=
EXTT14=
EXTT15=
PLAYORDER=
